<svg viewBox="0 0 1024 1024" fill="currentColor" width="32" height="32" xmlns="http://www.w3.org/2000/svg" xmlns:xlink="http://www.w3.org/1999/xlink">
    <path transform="matrix(1, 0, 0, -1, 0, 960)" d="M874.018 810.005C777.326 906.697 648.753 959.955 512 959.955s-265.325-53.258-362.018-149.95C53.29 713.313 0.032 584.74 0.032 447.987S53.29 182.662 149.982 85.969C246.674-10.723 375.247-63.981 512-63.981s265.325 53.258 362.018 149.95c96.692 96.692 149.95 225.265 149.95 362.018s-53.258 265.325-149.95 362.018zM945.202 447.988c0-52.853-9.418-104.238-27.444-152.3l-334.687 579.7c88.69-14.551 170.428-56.266 235.239-121.09 81.839-81.816 126.891-190.593 126.892-306.31zM638.682 621.565H385.314l126.682 219.402zM286.96 250.241H170.94l116.02 200.944zM365.718 396.525c0 80.651 65.622 146.282 146.282 146.282s146.282-65.622 146.282-146.282c0-80.651-65.622-146.282-146.282-146.282s-146.282 65.622-146.282 146.282zM737.04 451.199 853.06 250.255H737.04zM205.69 754.298c64.81 64.81 146.549 106.539 235.239 121.09l-334.687-579.7c-18.002 48.061-27.444 99.448-27.444 152.3 0 115.718 45.053 224.494 126.892 306.31zM512 14.786c-115.718 0-224.494 45.053-306.31 126.891-9.581 9.581-18.62 19.531-27.178 29.82h666.987c-8.558-10.289-17.61-20.239-27.178-29.82C736.482 59.838 627.716 14.786 512 14.786z" />
</svg>