<svg viewBox="0 0 1024 1024.2563" xmlns="http://www.w3.org/2000/svg"><path d="M340.44 1.046c-6.165.983-17.424 6.523-25.02 12.33-15.815 11.974-38.6 41.104-47.535 60.673-5.808 12.777-9.56 31.81-10.276 51.646-.895 24.126.535 31.095 13.134 67.373 15.19 43.604 21.892 56.65 38.69 74.878 4.2 4.557 9.025 10.544 10.812 13.403 3.842 6.435 7.238 16.532 8.49 25.2.803 5.718.714 6.88-.537 8.31-.805.803-1.788 1.43-2.146 1.34-.447-.18-6.076-7.328-12.6-15.906l-11.883-15.637-7.505-3.753c-24.036-11.973-48.162-13.224-64.87-3.395-2.056 1.16-7.954 5.628-13.047 9.917-32.078 26.896-66.658 48.61-87.567 54.953-5.27 1.608-7.773 1.876-14.564 1.43-21.98-1.25-53.345-18.854-61.386-34.4-1.608-3.218-2.145-6.703-3.217-21-1.876-24.482-.09-38.153 5.72-44.676.803-.894 8.31-6.255 16.53-11.973 8.31-5.718 14.833-10.543 14.654-10.722-.625-.625-11.348 2.413-20.194 5.72-27.52 10.275-40.388 22.07-45.66 41.996-2.95 10.99-3.306 31.9-.894 48.52 3.93 26.984 8.756 41.55 19.3 57.81 10.9 16.8 23.858 30.828 38.244 41.55 8.22 6.077 8.4 6.166 38.154 20.642 38.244 18.586 52.183 23.232 74.61 24.84 6.88.447 15.28 1.25 18.587 1.698 11.884 1.698 24.84 9.025 36.188 20.283 6.344 6.344 6.434 6.523 6.434 10.99 0 4.558 0 4.647-2.413 4.11-1.43-.267-9.025-1.34-16.977-2.412l-14.475-1.966-6.97 2.5c-18.228 6.345-33.776 17.157-41.818 29.04-5.987 8.847-7.506 13.94-9.025 29.935-4.022 43.07-13.136 83.19-22.965 101.775-5.36 10.008-15.458 17.87-31.542 24.304-13.314 5.36-20.998 6.97-33.418 7.06-13.314 0-14.207-.358-26.36-10.724-18.407-15.726-27.164-25.823-29.576-34.133-1.34-4.736-1.34-5.272 1.786-22.428 1.787-9.65 3.485-18.587 3.753-19.838.624-3.306-5.452 6.88-10.366 17.424C2.504 637.07-1.25 653.69.716 664.77 4.2 684.25 23.68 706.59 55.31 727.23c23.59 15.458 43.874 20.998 76.04 21.088 21.267 0 26.63-1.162 59.868-12.688 46.196-16.084 56.383-21.266 76.934-39.495 11.795-10.544 14.922-12.51 25.823-16.084 6.165-2.144 10.454-2.948 17.692-3.305 11.17-.625 11.17-.804.268 7.327-6.79 5.093-7.327 5.808-11.17 13.85-5.986 12.6-8.666 22.696-9.202 34.4-.715 16.174 2.77 26.807 12.956 38.602 21.98 25.555 40.655 53.076 51.646 75.772 8.757 18.05 10.186 26.45 6.612 40.12-5.54 21.802-19.658 44.14-32.168 50.932-4.378 2.413-5.987 2.68-21.356 3.842-24.662 1.876-37.44.357-44.23-5.272-1.787-1.43-7.684-9.293-13.224-17.424s-10.186-14.297-10.365-13.76c-.894 2.68 6.523 23.41 12.51 34.937 7.863 15.28 16.8 24.127 28.683 28.505 17.96 6.612 47.536 5.987 79.257-1.698 27.88-6.702 59.6-29.934 77.828-56.92 2.413-3.573 9.472-16.798 15.637-29.486 22.428-46.016 25.287-54.952 27.52-84.707 1.073-14.207 1.61-16.977 4.022-23.232 3.038-7.952 12.688-23.142 13.85-21.8.18.178-1.43 12.777-3.574 28.056l-3.842 27.7 2.234 6.702c8.22 24.483 23.5 42.354 41.818 48.877 2.055.625 11.527 2.055 21.088 3.038 55.042 5.54 96.68 17.245 108.655 30.56 11.706 13.045 21.09 38.42 21.178 57.364.09 11.973-1.162 14.475-14.565 29.934-11.616 13.315-19.21 20.284-25.913 23.68-7.684 3.932-7.506 3.932-43.784-3.127-2.234-.447-4.11-.625-4.29-.447-.356.357 14.566 8.757 19.123 10.723 16.976 7.415 25.733 9.65 37.438 9.65 7.238 0 9.918-.358 14.297-2.056 19.3-7.506 38.958-26.806 57.902-57.008 7.148-11.437 10.544-19.3 13.492-31.095 3.93-15.904 4.556-21.444 4.556-40.566 0-22.964-.447-25.02-12.42-59.778-16.262-47-22.34-58.527-42.086-79.704-7.238-7.863-11.973-16.44-14.922-27.164-3.127-11.705-2.502-40.12 1.072-46.822.447-.894 4.736 4.2 14.03 16.53l13.402 17.872 8.042 3.664c12.956 6.076 22.25 8.49 34.67 8.935 17.96.715 25.465-1.966 41.102-14.922 35.652-29.666 70.947-51.557 91.767-56.83 7.774-2.054 16.44-1.16 27.968 2.682 21.267 7.148 40.3 20.373 45.214 31.274 2.145 5.005 3.574 19.123 3.753 37.172.09 14.03-1.162 20.73-5.093 26.45-1.162 1.697-8.49 7.415-17.156 13.402-8.31 5.72-15.458 10.723-15.905 11.08-1.162 1.162 6.165-.715 16.44-4.11 19.212-6.344 34.402-15.726 42.176-26.09 12.42-16.442 13.938-50.844 3.93-91.5-3.394-13.492-8.488-23.858-19.3-39.316-7.238-10.454-27.61-31.006-36.635-36.903-12.33-8.22-59.867-30.917-75.95-36.278-14.298-4.736-21.535-6.165-37.53-7.06-7.595-.446-16.173-1.43-19.032-2.233-6.434-1.698-14.654-5.808-21.624-10.723-6.166-4.467-17.157-15.28-16.263-16.172.268-.268 11.437.983 24.84 2.86 26.985 3.752 26.002 3.752 39.137-1.52 14.565-5.808 27.253-15.19 34.67-25.555 6.164-8.667 8.13-15.19 9.74-31.453 4.467-47.894 14.832-90.248 26.09-106.6 7.238-10.454 31.453-22.428 52.272-25.734 8.042-1.34 18.496-.715 23.32 1.25 4.022 1.7 24.305 18.944 31.632 26.897 5.54 6.076 10.276 14.118 11.26 19.032.267 1.698-.358 7.684-1.7 14.297-3.573 18.854-4.913 26.45-4.645 26.628.536.536 9.114-15.458 12.42-23.053 8.31-19.21 10.276-36.367 5.72-48.43-7.06-18.586-27.7-39.405-57.01-57.634-10.81-6.79-17.96-10.008-29.397-13.046-13.94-3.753-25.734-5.183-42.354-5.183-18.14 0-27.164 1.608-45.124 7.863-6.612 2.323-18.407 6.344-26.18 9.025-34.134 11.884-46.287 18.675-68.178 38.154-8.4 7.506-16.352 11.884-26.27 14.654-10.633 2.95-48.34 1.698-47.18-1.52.18-.446 12.332-9.828 27.075-20.908l26.806-20.194 3.665-7.06C743.427 265.894 747 252.134 747 239.356c0-15.458-3.484-23.59-17.066-40.03-22.25-26.897-38.244-50.754-48.966-73.272-7.774-16.44-8.757-24.126-5.004-38.87 5.183-20.55 19.658-43.425 31.72-49.948 4.2-2.323 5.81-2.59 22.16-3.753 25.378-1.876 37.977-.09 44.678 6.165 1.162 1.072 6.165 7.774 10.99 14.922 13.225 19.39 12.78 19.03 10.098 8.934-6.523-23.947-18.228-44.23-29.934-52.004-16.8-11.08-45.48-12.688-82.92-4.736-14.923 3.127-24.305 6.702-35.296 13.314-20.55 12.42-37.618 28.236-49.234 45.66-5.093 7.684-27.61 53.523-33.06 67.462-5.81 14.743-8.49 27.164-9.473 43.962-1.162 20.64-4.378 30.29-14.654 43.605-7.06 9.203-21.09 20.91-31.543 26.27l-2.95 1.52.537-2.95c.268-1.608 1.25-8.578 2.234-15.37l1.698-12.51-2.145-6.522c-8.845-26.36-26.09-45.303-45.123-49.77-3.217-.715-12.867-1.966-21.445-2.77-27.52-2.502-60.314-9.025-79.08-15.637-17.87-6.344-25.197-11.527-32.167-22.785-8.935-14.297-14.833-33.508-15.012-48.698-.09-12.152.983-14.475 12.42-27.7 11.26-13.135 18.228-20.015 24.75-24.215 8.49-5.45 10.902-5.63 30.113-2.145 24.483 4.557 22.517 4.378 18.318 1.698-7.327-4.646-21.534-11.26-30.29-14.207-7.507-2.502-21.535-5.183-25.11-4.825-.447.09-3.127.448-5.808.895zm199.528 258.502c26.806 4.378 47.18 10.9 70.947 22.607 23.59 11.527 44.32 26.45 63.352 45.392 45.124 45.035 70.054 105.35 70.054 169.773 0 37.53-8.04 72.11-24.482 105.438-35.92 72.734-101.864 120.36-183.266 132.423-16.352 2.414-50.217 2.146-67.373-.535-68.357-10.544-128.403-48.966-165.753-106.153-21.088-32.257-34.312-70.41-38.154-110.174-1.25-13.76-.536-42.265 1.43-55.4 5.272-34.49 19.032-70.5 37.53-98.29 39.226-58.974 100.79-96.95 171.738-105.885 13.047-1.698 51.826-1.162 63.98.804zm-52.45 85.512c-17.872 1.876-35.832 7.238-52.81 15.637-30.648 15.19-55.756 40.567-70.59 71.394-20.73 42.98-20.64 91.142.09 134.48 21.088 43.96 61.565 75.235 110.353 85.064 8.668 1.698 12.957 2.055 28.952 2.055 21.088 0 31.006-1.52 48.073-7.06 57.902-18.943 99.54-70.322 106.153-130.904 5.272-48.787-14.207-99.362-50.575-131.62-33.24-29.397-76.666-43.604-119.645-39.047z"/></svg>